<svg xmlns="http://www.w3.org/2000/svg" width="1000" height="280" viewBox="0 0 1000 280"><style>.title{font-family:"PingFang SC",sans-serif;font-size:18px;fill:#1a1a1a;font-weight:600}.code{font-family:"Menlo",monospace;font-size:12px;fill:#555}.hex{font-family:"Menlo",monospace;font-size:13px;font-weight:600}</style><rect x="0" y="0" width="200" height="200" fill="#F4F1E8"/><text x="16" y="225" class="title">创芯白</text><text x="16" y="245" class="code">NCS S 0502-Y</text><text x="16" y="265" class="hex" fill="#1a1a1a">#F4F1E8</text><text x="184" y="190" text-anchor="end" class="hex" fill="#1a1a1a">#F4F1E8</text><rect x="200" y="0" width="200" height="200" fill="#7AAACE"/><text x="216" y="225" class="title">凉水蓝</text><text x="216" y="245" class="code">NCS S 0530-R80B</text><text x="216" y="265" class="hex" fill="#ffffff">#7AAACE</text><text x="384" y="190" text-anchor="end" class="hex" fill="#ffffff">#7AAACE</text><rect x="400" y="0" width="200" height="200" fill="#9DB87F"/><text x="416" y="225" class="title">海子绿</text><text x="416" y="245" class="code">NCS S 1030-G20Y</text><text x="416" y="265" class="hex" fill="#1a1a1a">#9DB87F</text><text x="584" y="190" text-anchor="end" class="hex" fill="#1a1a1a">#9DB87F</text><rect x="600" y="0" width="200" height="200" fill="#E8AE10"/><text x="616" y="225" class="title">行宫黄</text><text x="616" y="245" class="code">NCS S 1080-Y</text><text x="616" y="265" class="hex" fill="#1a1a1a">#E8AE10</text><text x="784" y="190" text-anchor="end" class="hex" fill="#1a1a1a">#E8AE10</text><rect x="800" y="0" width="200" height="200" fill="#C66848"/><text x="816" y="225" class="title">南囿红</text><text x="816" y="245" class="code">NCS S 2050-Y60R</text><text x="816" y="265" class="hex" fill="#ffffff">#C66848</text><text x="984" y="190" text-anchor="end" class="hex" fill="#ffffff">#C66848</text></svg>